<svg width="26" height="26" viewBox="0 0 26 26" fill="none" xmlns="http://www.w3.org/2000/svg">
<path d="M17.6323 15.2959L14.0071 12.577V7.03873C14.0071 6.48186 13.557 6.03174 13.0002 6.03174C12.4433 6.03174 11.9932 6.48186 11.9932 7.03873V13.0806C11.9932 13.3978 12.1422 13.6969 12.396 13.8862L16.4238 16.9071C16.6051 17.043 16.8166 17.1085 17.027 17.1085C17.3341 17.1085 17.6362 16.9705 17.8336 16.7047C18.168 16.2606 18.0774 15.6292 17.6323 15.2959Z" fill="#B73235"/>
<path d="M13 0C5.83136 0 0 5.83136 0 13C0 20.1686 5.83136 26 13 26C20.1686 26 26 20.1686 26 13C26 5.83136 20.1686 0 13 0ZM13 23.9861C6.94307 23.9861 2.01393 19.0569 2.01393 13C2.01393 6.94307 6.94307 2.01393 13 2.01393C19.0579 2.01393 23.9861 6.94307 23.9861 13C23.9861 19.0569 19.0569 23.9861 13 23.9861Z" fill="#B73235"/>
</svg>
