<svg width="37" height="37" viewBox="0 0 37 37" fill="none" xmlns="http://www.w3.org/2000/svg">
<path d="M33.0357 0H3.96428C1.77487 0 0 1.77488 0 3.96432V25.1074C0 27.2968 1.77487 29.0717 3.96428 29.0717H8.65538L7.93654 35.5335C7.8564 36.2589 8.3795 36.9119 9.10492 36.992C9.47951 37.0334 9.85395 36.9128 10.1341 36.6607L18.5674 29.0717H33.0357C35.2251 29.0717 37 27.2968 37 25.1074V3.96432C37 1.77488 35.2251 0 33.0357 0ZM34.3571 25.1074C34.3571 25.8372 33.7655 26.4288 33.0356 26.4288H18.0599C17.7334 26.4289 17.4185 26.5499 17.1759 26.7684L10.9467 32.3753L11.4449 27.8969C11.5258 27.1717 11.0036 26.518 10.2783 26.437C10.2295 26.4315 10.1805 26.4287 10.1314 26.4288H3.96428C3.23445 26.4288 2.64283 25.8372 2.64283 25.1074V3.96432C2.64283 3.23448 3.23445 2.64285 3.96428 2.64285H33.0357C33.7655 2.64285 34.3572 3.23448 34.3572 3.96432V25.1074H34.3571Z" fill="white"/>
</svg>
