<svg width="34" height="34" viewBox="0 0 34 34" fill="none" xmlns="http://www.w3.org/2000/svg">
<g clip-path="url(#clip0)">
<path d="M33.5313 0.473991C32.9084 -0.149696 31.8977 -0.149696 31.2748 0.473991L0.478797 31.27C-0.144625 31.8932 -0.144625 32.9031 0.478797 33.5262C0.790375 33.8381 1.19891 33.994 1.60717 33.994C2.01544 33.994 2.42397 33.8381 2.73528 33.5262L33.5313 2.73021C34.1547 2.10705 34.1547 1.09715 33.5313 0.473991Z" fill="white"/>
<path d="M7.57987 0.017395C3.40053 0.017395 0 3.41819 0 7.59754C0 11.7769 3.40053 15.1774 7.57987 15.1774C11.7595 15.1774 15.1597 11.7766 15.1597 7.59727C15.1597 3.41793 11.7592 0.017395 7.57987 0.017395ZM7.57987 11.9857C5.16003 11.9857 3.19148 10.0168 3.19148 7.59727C3.19148 5.17769 5.1603 3.20888 7.57987 3.20888C9.99972 3.20888 11.9683 5.17769 11.9683 7.59727C11.9683 10.0168 9.99972 11.9857 7.57987 11.9857Z" fill="white"/>
<path d="M26.4202 18.8326C22.2409 18.8326 18.8403 22.2331 18.8403 26.4125C18.8403 30.5918 22.2409 33.9923 26.4202 33.9923C30.5995 33.9923 34.0001 30.5921 34.0001 26.4125C34.0001 22.2328 30.5995 18.8326 26.4202 18.8326ZM26.4202 30.8006C24.0004 30.8006 22.0318 28.8318 22.0318 26.4122C22.0318 23.9926 24.0006 22.0238 26.4202 22.0238C28.8398 22.0238 30.8086 23.9926 30.8086 26.4122C30.8086 28.8318 28.84 30.8006 26.4202 30.8006Z" fill="white"/>
</g>
<defs>
<clipPath id="clip0">
<rect width="34" height="34" fill="white"/>
</clipPath>
</defs>
</svg>
