<svg width="30" height="30" viewBox="0 0 30 30" fill="none" xmlns="http://www.w3.org/2000/svg">
<path d="M22.0353 0H7.96496C7.31803 0 6.79199 0.526337 6.79199 1.17327V28.827C6.79199 29.474 7.31803 30 7.96496 30H22.0353C22.6822 30 23.2079 29.474 23.2079 28.827V1.17327C23.2082 0.526337 22.6822 0 22.0353 0ZM13.8497 27.4752C13.8497 26.8396 14.3642 26.3243 15.0001 26.3243C15.6369 26.3243 16.1505 26.8396 16.1505 27.4752C16.1505 28.1112 15.6369 28.6262 15.0001 28.6262C14.3642 28.6262 13.8497 28.1112 13.8497 27.4752ZM7.68338 25.5027V3.64782H22.3174V25.5027H7.68338Z" fill="#B73235"/>
</svg>
