<svg width="25" height="27" viewBox="0 0 25 27" fill="none" xmlns="http://www.w3.org/2000/svg">
<g clip-path="url(#clip0)">
<path d="M24.7643 25.1249L18.3097 18.5088C19.9999 16.5959 21.0385 14.066 21.0385 11.2821C21.0376 5.32695 16.3287 0.5 10.5196 0.5C4.71038 0.5 0.00146484 5.32695 0.00146484 11.2821C0.00146484 17.2373 4.71038 22.0643 10.5196 22.0643C13.0295 22.0643 15.3316 21.1599 17.1399 19.6565L23.6195 26.2987C23.9352 26.6226 24.4478 26.6226 24.7635 26.2987C25.08 25.9747 25.08 25.4489 24.7643 25.1249ZM10.5196 20.4054C5.60436 20.4054 1.61982 16.3208 1.61982 11.2821C1.61982 6.2435 5.60436 2.1589 10.5196 2.1589C15.4348 2.1589 19.4193 6.2435 19.4193 11.2821C19.4193 16.3208 15.4348 20.4054 10.5196 20.4054Z" fill="#C4C4C4"/>
</g>
<defs>
<clipPath id="clip0">
<rect width="25" height="26.0417" fill="white" transform="translate(0 0.5)"/>
</clipPath>
</defs>
</svg>
