<svg width="119" height="119" viewBox="0 0 119 119" fill="none" xmlns="http://www.w3.org/2000/svg">
<g clip-path="url(#clip0)">
<path d="M7.95215 94.7404C13.3031 100.751 19.7972 103.799 27.2541 103.799C33.9559 103.799 39.6373 101.413 44.1418 96.7064C48.6176 92.0301 50.8871 86.2217 50.8871 79.4422C50.8871 73.0355 48.5947 67.3266 44.0736 62.4736C40.0855 58.1923 35.0616 55.469 29.1142 54.3592C30.1543 46.4739 37.125 39.3367 49.8746 33.1178L52.1704 31.9977L42.7574 14.6199L40.6325 15.697C13.6706 29.3637 -0.000137329 48.6784 -0.000137329 73.1047C-0.000137329 81.5318 2.67522 88.8108 7.95215 94.7404ZM40.7326 21.1628L45.4487 29.8684C31.2664 37.2998 24.0811 46.2332 24.0811 56.4471V58.634L26.2538 58.8801C32.1062 59.5424 36.7631 61.8096 40.4905 65.8113C44.1911 69.7838 45.9901 74.2423 45.9901 79.4422C45.9901 84.9946 44.2281 89.534 40.604 93.3208C37.0094 97.0769 32.6423 98.9028 27.2539 98.9028C21.1703 98.9028 16.0531 96.4763 11.6102 91.485C7.09251 86.4091 4.89635 80.3969 4.89635 73.1049C4.89635 61.9097 8.04882 51.8027 14.2656 43.0645C20.1978 34.7272 29.095 27.3665 40.7326 21.1628Z" fill="#3A0505" fill-opacity="0.1"/>
<path d="M74.3219 94.751C79.7321 100.755 86.2532 103.799 93.7046 103.799C100.413 103.799 106.069 101.408 110.514 96.6928C114.921 92.0183 117.156 86.2143 117.156 79.4417C117.156 73.0353 114.863 67.3263 110.343 62.4731C106.363 58.201 101.399 55.4803 95.5626 54.3654C96.5902 46.4741 103.503 39.3334 116.15 33.1133L118.411 32.0018L109.232 14.6116L107.086 15.6944C80.0022 29.3605 66.2693 48.6761 66.2693 73.1044C66.2695 81.538 68.9791 88.821 74.3219 94.751ZM107.158 21.1707L111.745 29.8628C97.6658 37.297 90.5318 46.2325 90.5318 56.4468V58.6289L92.6997 58.8791C98.432 59.5405 103.032 61.8079 106.76 65.811C110.461 69.7834 112.259 74.242 112.259 79.4417C112.259 85.0013 110.523 89.5455 106.951 93.3335C103.419 97.0806 99.0854 98.9023 93.7046 98.9023C87.615 98.9023 82.4643 96.4724 77.9598 91.4732C73.3883 86.4 71.166 80.3913 71.166 73.1044C71.166 61.9111 74.3321 51.8054 80.5771 43.0682C86.5349 34.7332 95.4703 27.3736 107.158 21.1707Z" fill="#3A0505" fill-opacity="0.1"/>
</g>
<defs>
<clipPath id="clip0">
<rect width="118.411" height="118.411" fill="white" transform="translate(118.411 118.411) rotate(-180)"/>
</clipPath>
</defs>
</svg>
