<svg width="119" height="119" viewBox="0 0 119 119" fill="none" xmlns="http://www.w3.org/2000/svg">
<g clip-path="url(#clip0)">
<path d="M110.459 23.6707C105.108 17.6597 98.6139 14.6118 91.157 14.6118C84.4552 14.6118 78.7738 16.9983 74.2693 21.7047C69.7935 26.381 67.524 32.1894 67.524 38.9689C67.524 45.3756 69.8164 51.0846 74.3375 55.9376C78.3256 60.2189 83.3495 62.9421 89.2969 64.052C88.2569 71.9372 81.2861 79.0745 68.5366 85.2934L66.2407 86.4134L75.6537 103.791L77.7786 102.714C104.741 89.0474 118.411 69.7327 118.411 45.3065C118.411 36.8794 115.736 29.6003 110.459 23.6707ZM77.6785 97.2483L72.9624 88.5428C87.1447 81.1113 94.3301 72.178 94.3301 61.9641V59.7771L92.1573 59.5311C86.3049 58.8687 81.6481 56.6016 77.9206 52.5998C74.2201 48.6273 72.421 44.1688 72.421 38.9689C72.421 33.4165 74.1831 28.8771 77.8071 25.0903C81.4018 21.3342 85.7689 19.5083 91.1573 19.5083C97.2409 19.5083 102.358 21.9348 106.801 26.9261C111.319 32.0021 113.515 38.0142 113.515 45.3062C113.515 56.5014 110.362 66.6085 104.145 75.3466C98.2134 83.684 89.3161 91.0447 77.6785 97.2483Z" fill="#3A0505" fill-opacity="0.1"/>
<path d="M44.0892 23.6599C38.6791 17.6563 32.1579 14.6121 24.7066 14.6121C17.9983 14.6121 12.3425 17.0029 7.89724 21.7181C3.49012 26.3926 1.25534 32.1966 1.25534 38.9692C1.25534 45.3756 3.54771 51.0846 8.06839 55.9378C12.0481 60.2099 17.0117 62.9306 22.8485 64.0455C21.821 71.9367 14.9083 79.0775 2.26091 85.2976L0 86.409L9.17872 103.799L11.3247 102.716C38.409 89.0504 52.1419 69.7348 52.1419 45.3065C52.1417 36.8729 49.4321 29.5899 44.0892 23.6599ZM11.2535 97.2402L6.66595 88.5481C20.7453 81.1138 27.8794 72.1784 27.8794 61.9641V59.782L25.7114 59.5318C19.9791 58.8703 15.3796 56.603 11.651 52.5999C7.95044 48.6275 6.15183 44.1688 6.15183 38.9692C6.15183 33.4096 7.88822 28.8654 11.4598 25.0773C14.9924 21.3303 19.3258 19.5085 24.7066 19.5085C30.7962 19.5085 35.9468 21.9385 40.4513 26.9377C45.0229 32.0109 47.2452 38.0196 47.2452 45.3065C47.2452 56.4998 44.079 66.6055 37.834 75.3427C31.8762 83.6777 22.9408 91.0373 11.2535 97.2402Z" fill="#3A0505" fill-opacity="0.1"/>
</g>
<defs>
<clipPath id="clip0">
<rect width="118.411" height="118.411" fill="white"/>
</clipPath>
</defs>
</svg>
