<svg width="51" height="51" viewBox="0 0 51 51" fill="none" xmlns="http://www.w3.org/2000/svg">
<g clip-path="url(#clip0)">
<path d="M47.8448 13.2048C47.4681 13.0366 47.0261 13.2052 46.8578 13.5822L41.5793 25.3943C41.1376 26.3923 40.1478 27.0365 39.0568 27.0365C39.0559 27.0365 39.0548 27.0365 39.0539 27.0365L17.7661 27.0138C17.7655 27.0138 17.7649 27.0138 17.7643 27.0138C17.4221 27.0138 17.0903 27.1131 16.8055 27.3001L5.07436 34.9731C4.49603 35.3489 3.71814 35.1853 3.33995 34.6091L1.69053 32.0963C1.38796 31.6259 1.39952 30.7909 2.05756 30.3529L7.85157 26.5624C8.19697 26.3365 8.29371 25.8734 8.06786 25.5281C7.8419 25.1827 7.37894 25.086 7.03343 25.3118L1.24111 29.1012C0.0562467 29.8434 -0.423358 31.627 0.441206 32.9163L2.09063 35.429C2.90429 36.65 4.57384 37.0526 5.89061 36.2249L17.6247 28.5499C17.6662 28.5227 17.7144 28.5083 17.7641 28.5083H17.7644L20.4347 28.511V28.843C20.4347 30.9919 21.8749 32.8096 23.8403 33.3847V38.4415H20.0221C17.6326 38.4415 15.4129 39.5171 13.9324 41.3926L13.2303 42.2819H12.2618C11.3005 42.2819 10.5183 43.0641 10.5183 44.0254V45.8306C10.5183 46.7919 11.3005 47.5741 12.2618 47.5741H17.1259C17.5386 47.5741 17.8731 47.2396 17.8731 46.8269C17.8731 46.4141 17.5386 46.0797 17.1259 46.0797H12.2618C12.1244 46.0797 12.0127 45.968 12.0127 45.8306V44.0254C12.0127 43.888 12.1244 43.7763 12.2618 43.7763H43.0235C43.1609 43.7763 43.2726 43.888 43.2726 44.0254V45.8306C43.2726 45.968 43.1609 46.0797 43.0235 46.0797H20.6128C20.2 46.0797 19.8656 46.4141 19.8656 46.8269C19.8656 47.2396 20.2 47.5741 20.6128 47.5741H43.0234C43.9847 47.5741 44.7669 46.7919 44.7669 45.8306V44.0254C44.7669 43.0641 43.9847 42.2819 43.0234 42.2819H42.0548L41.3528 41.3926C39.8722 39.5171 37.6525 38.4415 35.2631 38.4415H31.3447V33.3847C33.3102 32.8096 34.7504 30.9919 34.7504 28.843V28.5262L39.0523 28.5308H39.0568C40.7387 28.5307 42.2649 27.5374 42.9448 26.0014L48.2223 14.1917C48.3904 13.8152 48.2216 13.3733 47.8448 13.2048ZM40.1491 42.282H15.1361C16.3313 40.7909 18.1089 39.936 20.0221 39.936H35.2631C37.1762 39.936 38.9537 40.791 40.1491 42.282ZM25.3346 38.4416V33.5754H29.8502V38.4416H25.3346ZM33.2559 28.8431C33.2559 30.6285 31.8034 32.081 30.018 32.081H25.167C23.3815 32.081 21.9291 30.6285 21.9291 28.8431V28.5127L33.2559 28.5247V28.8431Z" fill="white"/>
<path d="M50.8155 6.40528C50.5513 5.71785 50.0348 5.17498 49.3612 4.8769L46.6123 3.66025C45.4287 3.13651 44.0659 3.52067 43.3119 4.50897L41.621 3.76775C40.3739 3.18902 38.5803 3.76366 37.9942 5.19032L36.323 9.1244C35.7142 10.5135 36.3489 12.1389 37.7407 12.749L39.2508 13.4036L38.8713 14.2514H28.9948C26.1249 14.2514 23.7902 16.5863 23.7902 19.456V20.0087L16.4238 20.0009C16.422 20.0009 16.4206 20.0009 16.4188 20.0009C15.5875 20.0009 14.7808 20.2421 14.0866 20.6977L10.016 23.3606C9.67059 23.5866 9.57385 24.0496 9.79971 24.3949C9.94307 24.6141 10.182 24.7333 10.4257 24.7333C10.5659 24.7333 10.7079 24.6938 10.834 24.6112L14.9056 21.9477C15.3565 21.6516 15.8797 21.4953 16.4189 21.4953C21.2878 21.5005 31.3189 21.511 36.124 21.5161C36.8154 21.516 37.4429 21.1076 37.7218 20.4779L40.0434 15.2906C40.0436 15.2901 40.0439 15.2896 40.0441 15.289L44.3526 5.66226C44.6344 5.03271 45.3763 4.74738 46.0075 5.02674L48.7565 6.24348C49.2648 6.47352 49.7084 7.18187 49.3948 7.90457L48.2804 10.3984C48.1121 10.7751 48.281 11.2171 48.6578 11.3854C49.0341 11.5536 49.4763 11.3849 49.6448 11.008L50.7592 8.51418C51.0597 7.8418 51.0797 7.0929 50.8155 6.40528ZM38.3378 11.3791C37.7035 11.101 37.4136 10.3588 37.6951 9.71648L39.3662 5.78241C39.594 5.27441 40.2979 4.82868 41.0209 5.13643L42.6342 5.84358L39.8613 12.0394L38.3378 11.3791ZM36.1238 20.0217C36.1237 20.0217 36.1236 20.0217 36.1235 20.0217L28.1894 20.0133V19.456C28.1894 19.0119 28.5506 18.6506 28.9948 18.6506H30.8743C31.2871 18.6506 31.6215 18.3162 31.6215 17.9034C31.6215 17.4907 31.2871 17.1562 30.8743 17.1562H28.9948C27.7266 17.1562 26.695 18.1879 26.695 19.456V20.0117L25.2846 20.0103V19.456C25.2846 17.4102 26.949 15.7458 28.9948 15.7458H38.2024L37.5712 17.1562H34.3613C33.9485 17.1562 33.6141 17.4907 33.6141 17.9034C33.6141 18.3162 33.9485 18.6506 34.3613 18.6506H36.9024L36.3565 19.8702C36.3158 19.9623 36.2245 20.0217 36.1238 20.0217Z" fill="white"/>
</g>
<defs>
<clipPath id="clip0">
<rect width="51" height="51" fill="white"/>
</clipPath>
</defs>
</svg>
