<svg width="47" height="50" viewBox="0 0 47 50" fill="none" xmlns="http://www.w3.org/2000/svg">
<path d="M25.7812 19.5337H13.2812C12.8492 19.5337 12.5 19.8829 12.5 20.3149V23.4399C12.5 23.872 12.8492 24.2212 13.2812 24.2212H25.7812C26.2133 24.2212 26.5625 23.872 26.5625 23.4399V20.3149C26.5625 19.8829 26.2133 19.5337 25.7812 19.5337ZM25 22.6587H14.0625V21.0962H25V22.6587Z" fill="white"/>
<path d="M26.5674 37.5007H12.5049C12.0729 37.5007 11.7236 37.85 11.7236 38.282V42.971C11.7236 43.4031 12.0729 43.7523 12.5049 43.7523H26.5674C26.9994 43.7523 27.3486 43.4031 27.3486 42.971V38.282C27.3486 37.85 26.9994 37.5007 26.5674 37.5007ZM25.7861 42.1898H13.2861V39.0632H25.7861V42.1898Z" fill="white"/>
<path d="M33.6201 38.2837H33.6115C33.1803 38.2837 32.835 38.6329 32.835 39.0649C32.835 39.497 33.1881 39.8462 33.6201 39.8462C34.0514 39.8462 34.4014 39.497 34.4014 39.0649C34.4014 38.6329 34.0514 38.2837 33.6201 38.2837Z" fill="white"/>
<path d="M30.4951 38.2837H30.4865C30.0553 38.2837 29.71 38.6329 29.71 39.0649C29.71 39.497 30.0631 39.8462 30.4951 39.8462C30.9264 39.8462 31.2764 39.497 31.2764 39.0649C31.2764 38.6329 30.9264 38.2837 30.4951 38.2837Z" fill="white"/>
<path d="M33.6201 41.4116H33.6115C33.1803 41.4116 32.835 41.7608 32.835 42.1929C32.835 42.6249 33.1881 42.9741 33.6201 42.9741C34.0514 42.9741 34.4014 42.6249 34.4014 42.1929C34.4014 41.7608 34.0514 41.4116 33.6201 41.4116Z" fill="white"/>
<path d="M30.4951 41.4116H30.4865C30.0553 41.4116 29.71 41.7608 29.71 42.1929C29.71 42.6249 30.0631 42.9741 30.4951 42.9741C30.9264 42.9741 31.2764 42.6249 31.2764 42.1929C31.2764 41.7608 30.9264 41.4116 30.4951 41.4116Z" fill="white"/>
<path d="M8.59619 38.2837H8.5876C8.15635 38.2837 7.81104 38.6329 7.81104 39.0649C7.81104 39.497 8.16416 39.8462 8.59619 39.8462C9.02744 39.8462 9.37744 39.497 9.37744 39.0649C9.37744 38.6329 9.02744 38.2837 8.59619 38.2837Z" fill="white"/>
<path d="M5.47119 38.2837H5.4626C5.03135 38.2837 4.68604 38.6329 4.68604 39.0649C4.68604 39.497 5.03916 39.8462 5.47119 39.8462C5.90244 39.8462 6.25244 39.497 6.25244 39.0649C6.25244 38.6329 5.90244 38.2837 5.47119 38.2837Z" fill="white"/>
<path d="M8.59619 41.4116H8.5876C8.15635 41.4116 7.81104 41.7608 7.81104 42.1929C7.81104 42.6249 8.16416 42.9741 8.59619 42.9741C9.02744 42.9741 9.37744 42.6249 9.37744 42.1929C9.37744 41.7608 9.02744 41.4116 8.59619 41.4116Z" fill="white"/>
<path d="M5.47119 41.4116H5.4626C5.03135 41.4116 4.68604 41.7608 4.68604 42.1929C4.68604 42.6249 5.03916 42.9741 5.47119 42.9741C5.90244 42.9741 6.25244 42.6249 6.25244 42.1929C6.25244 41.7608 5.90244 41.4116 5.47119 41.4116Z" fill="white"/>
<path d="M45.3125 30.4773H44.5312V3.90781C44.5312 1.75312 42.7781 0 40.6234 0H22.6578C20.7711 0 19.1922 1.34531 18.8297 3.12656H17.9688C17.5367 3.12656 17.1875 3.47578 17.1875 3.90781V7.03594H14.0469C13.8383 7.03594 13.6398 7.11875 13.493 7.26641L9.60312 11.1766C9.45703 11.3234 9.37578 11.5203 9.37578 11.7273V30.4773H0.78125C0.349219 30.4773 0 30.8266 0 31.2586C0 32.5398 0.628906 33.6688 1.58359 34.3812C0.628906 35.0938 0 36.2227 0 37.5039V43.7477C0 45.6336 1.34453 47.2125 3.125 47.575V49.2188C3.125 49.6508 3.47422 50 3.90625 50H10.1562C10.5883 50 10.9375 49.6508 10.9375 49.2188V47.6539H28.1203V49.2188C28.1203 49.6508 28.4695 50 28.9016 50H35.1516C35.5836 50 35.9328 49.6508 35.9328 49.2188V47.575C37.7133 47.2117 39.0578 45.6336 39.0578 43.7477V37.5039C39.0578 36.2234 38.4297 35.0953 37.4758 34.3828C38.4328 33.6695 39.0609 32.5406 39.0609 31.2586C39.0609 30.8266 38.7117 30.4773 38.2797 30.4773H29.6891V11.7273C29.6891 11.5195 29.607 11.3211 29.4602 11.175L25.5508 7.26484C25.4039 7.11797 25.2063 7.03594 24.9984 7.03594H21.875V3.90781C21.875 3.47578 21.5258 3.12656 21.0938 3.12656H20.457C20.7805 2.21875 21.6398 1.5625 22.6578 1.5625H40.6234C41.9164 1.5625 42.9688 2.61484 42.9688 3.90781V30.4773H42.1875C41.7555 30.4773 41.4062 30.8266 41.4062 31.2586V37.5148C41.4062 37.9469 41.7555 38.2961 42.1875 38.2961H42.9688V40.6297C42.9688 41.0617 43.318 41.4109 43.75 41.4109C44.182 41.4109 44.5312 41.0617 44.5312 40.6297V38.2961H45.3125C45.7445 38.2961 46.0938 37.9469 46.0938 37.5148V31.2586C46.0938 30.8266 45.7445 30.4773 45.3125 30.4773ZM9.375 48.4375H4.6875V47.6539H9.375V48.4375ZM34.3703 48.4375H29.6828V47.6539H34.3703V48.4375ZM37.4953 37.5039V43.7477C37.4953 45.0398 36.4437 46.0914 35.1516 46.0914H28.9016H10.1562H3.90625C2.61406 46.0914 1.5625 45.0398 1.5625 43.7477V37.5039C1.5625 36.2188 2.60156 35.175 3.88359 35.1625C3.89141 35.1625 3.89922 35.1648 3.90625 35.1648C3.91328 35.1648 3.92109 35.1602 3.92891 35.1602H35.1312C35.1398 35.1602 35.1469 35.1648 35.1539 35.1648C35.1609 35.1648 35.168 35.1625 35.175 35.1625C36.457 35.1758 37.4953 36.2195 37.4953 37.5039ZM35.1516 33.5977H3.90625C3.89844 33.5977 3.89063 33.6 3.88359 33.6C2.87656 33.5898 2.02813 32.9398 1.70703 32.0398H10.1578H28.9078H37.3547C37.0336 32.9406 36.1844 33.5906 35.1766 33.6C35.168 33.6 35.1602 33.5977 35.1516 33.5977ZM10.9391 30.4773V14.8445H28.1266V30.4773H10.9391ZM28.1266 12.0508V13.282H10.9391V12.05L14.3727 8.59844H24.6758L28.1266 12.0508ZM18.75 4.68906H20.3125V7.03281H18.75V4.68906ZM44.5312 36.7336H42.9688V32.0398H44.5312V36.7336Z" fill="white"/>
</svg>
