<svg width="54" height="54" viewBox="0 0 54 54" fill="none" xmlns="http://www.w3.org/2000/svg">
<path d="M41.25 7.01758V8.73633H39.5312C38.5834 8.73633 37.8125 9.50719 37.8125 10.4551V12.1738C37.8125 13.1217 38.5834 13.8926 39.5312 13.8926H41.25V15.6113C41.25 16.5592 42.0209 17.3301 42.9688 17.3301H44.6875C45.6354 17.3301 46.4062 16.5592 46.4062 15.6113V13.8926H48.125C49.0729 13.8926 49.8438 13.1217 49.8438 12.1738V10.4551C49.8438 9.50719 49.0729 8.73633 48.125 8.73633H46.4062V7.01758C46.4062 6.06969 45.6354 5.29883 44.6875 5.29883H42.9688C42.0209 5.29883 41.25 6.06969 41.25 7.01758ZM48.125 10.4542V12.1738H44.6875V15.6113H42.9688V12.1738H39.5312V10.4551H42.9688V7.01758H44.6875V10.4551L48.125 10.4542Z" fill="white"/>
<path d="M52.4219 2.72078C49.7664 2.72078 47.1591 1.99891 44.8834 0.6325L43.8281 0L42.7728 0.6325C40.4972 1.99891 37.8898 2.72078 35.2344 2.72078H34.375V7.01766H32.6562V6.15828C32.6562 2.84109 29.957 0.142656 26.6406 0.142656C23.3243 0.142656 20.625 2.84109 20.625 6.15828V7.01766H8.59375C7.64586 7.01766 6.875 7.78851 6.875 8.73641V15.6217C4.92508 15.6776 3.11781 16.567 1.89578 18.0967C0.672891 19.6247 0 21.5445 0 23.5262C0 25.856 0.9075 28.0466 2.55492 29.694L6.875 34.0141V51.7052C6.875 52.653 7.64586 53.4239 8.59375 53.4239H44.6875C45.6354 53.4239 46.4062 52.653 46.4062 51.7052V21.4895C50.5974 19.2895 53.2812 14.9677 53.2812 10.0762V2.72078H52.4219ZM41.25 32.4723L39.4324 34.5177H29.2188V44.8302H39.5312V36.9927L41.25 35.0591V48.2677H12.0312V39.1703L12.8906 40.0297L23.2263 29.694C23.8408 29.0795 24.3521 28.3886 24.7517 27.6427H32.8144C33.1702 28.6404 34.1155 29.3614 35.2344 29.3614C36.6558 29.3614 37.8125 28.2047 37.8125 26.7833C37.8125 25.3619 36.6558 24.2052 35.2344 24.2052C34.1155 24.2052 33.1702 24.9262 32.8144 25.9239H25.4409C25.6618 25.1479 25.7812 24.3358 25.7812 23.5013C25.7812 21.5445 25.1084 19.6255 23.8855 18.0967C22.623 16.5172 20.7384 15.6114 18.7146 15.6114C16.946 15.6114 15.284 16.2998 14.0327 17.551L12.8906 18.6931L12.0312 17.8337V12.1739H34.5426C35.188 16.1846 37.6698 19.6101 41.25 21.4895V32.4723ZM35.2713 41.7854L37.8125 38.9262V43.1114H30.9375V36.2364H37.8125V36.3395L35.1974 39.2812L33.2638 37.3476L32.0487 38.5627L35.2713 41.7854ZM34.375 26.7833C34.375 26.3098 34.76 25.9239 35.2344 25.9239C35.7088 25.9239 36.0938 26.3098 36.0938 26.7833C36.0938 27.2568 35.7088 27.6427 35.2344 27.6427C34.76 27.6427 34.375 27.2568 34.375 26.7833ZM22.3438 6.15828C22.3438 3.78898 24.2713 1.86141 26.6406 1.86141C29.0099 1.86141 30.9375 3.78898 30.9375 6.15828V7.01766H29.2188V6.15828C29.2188 4.73687 28.062 3.58016 26.6406 3.58016C25.2192 3.58016 24.0625 4.73687 24.0625 6.15828V7.01766H22.3438V6.15828ZM27.5 7.01766H25.7812V6.15828C25.7812 5.68476 26.1663 5.29891 26.6406 5.29891C27.115 5.29891 27.5 5.68476 27.5 6.15828V7.01766ZM34.375 8.73641V10.077C34.375 10.2042 34.3862 10.3288 34.3905 10.4552H10.3125V16.4648C9.77453 16.1605 9.19703 15.9362 8.59375 15.7945V8.73641H34.375ZM1.71875 23.5013C1.71875 21.933 2.25844 20.3955 3.23898 19.1701C4.17227 18.0005 5.56789 17.3302 7.06664 17.3302C8.37547 17.3302 9.60695 17.8398 10.5334 18.7662L12.8906 21.1234L15.2479 18.7662C16.1743 17.8398 17.4058 17.3302 18.7146 17.3302C20.2125 17.3302 21.6081 18.0005 22.5423 19.1701C23.5228 20.3947 24.0625 21.933 24.0625 23.5262C24.0625 24.3581 23.9104 25.1651 23.6345 25.9239H15.797L13.9098 29.7L11.2449 21.7078L8.87133 27.6427H6.875V29.3614H10.0349L11.0988 26.7025L13.5902 34.1791L16.8592 27.6427H22.7167C22.5027 27.9348 22.2724 28.2176 22.0112 28.4788L12.8906 37.5994L3.77008 28.4788C2.4475 27.1562 1.71875 25.3971 1.71875 23.5013ZM44.6875 51.7052H8.59375V35.7328L10.3125 37.4516V49.9864H42.9688V22.2398C43.1724 22.312 43.3727 22.3884 43.5815 22.4503L43.8281 22.5242L44.0748 22.4503C44.2836 22.3876 44.4838 22.3111 44.6875 22.2398V51.7052ZM51.5625 10.077C51.5625 14.9746 48.4653 19.2225 43.8281 20.7273C39.1909 19.2225 36.0938 14.9746 36.0938 10.077V4.41719C38.7612 4.27711 41.36 3.48562 43.658 2.10719L43.8281 2.00406L43.9983 2.10633C46.2954 3.48562 48.895 4.27711 51.5625 4.41719V10.077Z" fill="white"/>
<path d="M25.7812 43.1113H27.5V44.8301H25.7812V43.1113Z" fill="white"/>
<path d="M22.3438 43.1113H24.0625V44.8301H22.3438V43.1113Z" fill="white"/>
<path d="M18.9062 43.1113H20.625V44.8301H18.9062V43.1113Z" fill="white"/>
<path d="M27.5 20.7676H32.6562V22.4863H27.5V20.7676Z" fill="white"/>
<path d="M27.5 17.3301H32.6562V19.0488H27.5V17.3301Z" fill="white"/>
<path d="M27.5 13.8926H32.6562V15.6113H27.5V13.8926Z" fill="white"/>
</svg>
