<svg width="60" height="46" viewBox="0 0 60 46" fill="none" xmlns="http://www.w3.org/2000/svg">
<path d="M3.9375 33.4688C4.19857 33.4688 4.44895 33.365 4.63356 33.1804C4.81816 32.9958 4.92188 32.7454 4.92188 32.4844V2.95312C4.92188 2.69205 5.02559 2.44167 5.21019 2.25707C5.3948 2.07246 5.64518 1.96875 5.90625 1.96875H53.1562C53.4173 1.96875 53.6677 2.07246 53.8523 2.25707C54.0369 2.44167 54.1406 2.69205 54.1406 2.95312V32.4844C54.1406 32.7454 54.2443 32.9958 54.4289 33.1804C54.6135 33.365 54.8639 33.4688 55.125 33.4688C55.3861 33.4688 55.6365 33.365 55.8211 33.1804C56.0057 32.9958 56.1094 32.7454 56.1094 32.4844V2.95312C56.1094 2.16991 55.7982 1.41877 55.2444 0.86495C54.6906 0.311132 53.9395 0 53.1562 0H5.90625C5.12303 0 4.37189 0.311132 3.81808 0.86495C3.26426 1.41877 2.95312 2.16991 2.95312 2.95312V32.4844C2.95312 32.7454 3.05684 32.9958 3.24144 33.1804C3.42605 33.365 3.67643 33.4688 3.9375 33.4688Z" fill="white"/>
<path d="M58.0781 35.4375H0.984375C0.723302 35.4375 0.472923 35.5412 0.288317 35.7258C0.103711 35.9104 0 36.1608 0 36.4219V40.3594C0 41.6647 0.518553 42.9166 1.44158 43.8397C2.36461 44.7627 3.61651 45.2812 4.92188 45.2812H44.2969C44.5579 45.2812 44.8083 45.1775 44.9929 44.9929C45.1775 44.8083 45.2812 44.5579 45.2812 44.2969C45.2812 44.0358 45.1775 43.7854 44.9929 43.6008C44.8083 43.4162 44.5579 43.3125 44.2969 43.3125H4.92188C4.13866 43.3125 3.38752 43.0014 2.8337 42.4475C2.27988 41.8937 1.96875 41.1426 1.96875 40.3594V37.4062H57.0938V40.3594C57.0938 41.1426 56.7826 41.8937 56.2288 42.4475C55.675 43.0014 54.9238 43.3125 54.1406 43.3125H48.2344C47.9733 43.3125 47.7229 43.4162 47.5383 43.6008C47.3537 43.7854 47.25 44.0358 47.25 44.2969C47.25 44.5579 47.3537 44.8083 47.5383 44.9929C47.7229 45.1775 47.9733 45.2812 48.2344 45.2812H54.1406C55.446 45.2812 56.6979 44.7627 57.6209 43.8397C58.5439 42.9166 59.0625 41.6647 59.0625 40.3594V36.4219C59.0625 36.1608 58.9588 35.9104 58.7742 35.7258C58.5896 35.5412 58.3392 35.4375 58.0781 35.4375Z" fill="white"/>
<path d="M27.5625 39.375C27.3014 39.375 27.051 39.4787 26.8664 39.6633C26.6818 39.8479 26.5781 40.0983 26.5781 40.3594C26.5781 40.6204 26.6818 40.8708 26.8664 41.0554C27.051 41.24 27.3014 41.3438 27.5625 41.3438H31.5C31.7611 41.3438 32.0115 41.24 32.1961 41.0554C32.3807 40.8708 32.4844 40.6204 32.4844 40.3594C32.4844 40.0983 32.3807 39.8479 32.1961 39.6633C32.0115 39.4787 31.7611 39.375 31.5 39.375H27.5625Z" fill="white"/>
<path d="M45.2812 41.3438C45.8249 41.3438 46.2656 40.903 46.2656 40.3594C46.2656 39.8157 45.8249 39.375 45.2812 39.375C44.7376 39.375 44.2969 39.8157 44.2969 40.3594C44.2969 40.903 44.7376 41.3438 45.2812 41.3438Z" fill="white"/>
<path d="M49.2188 41.3438C49.7624 41.3438 50.2031 40.903 50.2031 40.3594C50.2031 39.8157 49.7624 39.375 49.2188 39.375C48.6751 39.375 48.2344 39.8157 48.2344 40.3594C48.2344 40.903 48.6751 41.3438 49.2188 41.3438Z" fill="white"/>
<path d="M9.84375 41.3438C10.3874 41.3438 10.8281 40.903 10.8281 40.3594C10.8281 39.8157 10.3874 39.375 9.84375 39.375C9.30009 39.375 8.85938 39.8157 8.85938 40.3594C8.85938 40.903 9.30009 41.3438 9.84375 41.3438Z" fill="white"/>
<path d="M13.7812 41.3438C14.3249 41.3438 14.7656 40.903 14.7656 40.3594C14.7656 39.8157 14.3249 39.375 13.7812 39.375C13.2376 39.375 12.7969 39.8157 12.7969 40.3594C12.7969 40.903 13.2376 41.3438 13.7812 41.3438Z" fill="white"/>
<path d="M50.2031 8.85936H49.2975C49.2157 8.01144 48.8944 7.20429 48.3709 6.53221C47.8475 5.86012 47.1437 5.35085 46.3416 5.06388C45.5396 4.77691 44.6724 4.7241 43.8414 4.91161C43.0105 5.09912 42.25 5.5192 41.6489 6.1228L41.5209 6.25077L41.3438 6.1228C40.6824 5.47178 39.8351 5.04228 38.919 4.89366C38.003 4.74504 37.0634 4.88465 36.2301 5.29318C35.3968 5.70171 34.711 6.359 34.2675 7.17418C33.824 7.98937 33.6446 8.9222 33.7542 9.84374H32.4844C32.2233 9.84374 31.9729 9.94745 31.7883 10.1321C31.6037 10.3167 31.5 10.567 31.5 10.8281C31.5 11.0892 31.6037 11.3396 31.7883 11.5242C31.9729 11.7088 32.2233 11.8125 32.4844 11.8125H34.4531C34.6169 12.0544 34.8013 12.2817 35.0044 12.4917L40.8122 18.2995C40.9042 18.3908 41.0133 18.4629 41.1332 18.5119C41.2531 18.5609 41.3815 18.5857 41.5111 18.585C41.7693 18.5839 42.0168 18.4814 42.2002 18.2995L48.008 12.4917C48.4779 12.022 48.8376 11.4538 49.0613 10.8281H50.2031C50.4642 10.8281 50.7146 10.7244 50.8992 10.5398C51.0838 10.3552 51.1875 10.1048 51.1875 9.84374C51.1875 9.58266 51.0838 9.33228 50.8992 9.14768C50.7146 8.96307 50.4642 8.85936 50.2031 8.85936ZM36.4219 7.51077C36.657 7.27558 36.9364 7.08926 37.2439 6.96255C37.5513 6.83584 37.8809 6.77124 38.2134 6.77249C38.8843 6.77427 39.5277 7.03938 40.005 7.51077L40.8319 8.34749C41.0163 8.53083 41.2658 8.63374 41.5259 8.63374C41.7859 8.63374 42.0354 8.53083 42.2198 8.34749L43.0566 7.51077C43.384 7.18578 43.7941 6.95651 44.2424 6.84777C44.6908 6.73903 45.1603 6.75496 45.6003 6.89384C46.0402 7.03272 46.4338 7.28925 46.7385 7.63569C47.0431 7.98213 47.2472 8.40528 47.3288 8.85936H44.2969C44.1441 8.85936 43.9933 8.89494 43.8567 8.96329C43.72 9.03163 43.6011 9.13086 43.5094 9.25311L41.4323 12.0192L39.2372 8.35733C39.1688 8.24321 39.0781 8.14413 38.9704 8.06606C38.8627 7.988 38.7403 7.93257 38.6105 7.90313C38.4808 7.87369 38.3465 7.87085 38.2156 7.89477C38.0848 7.9187 37.9601 7.96889 37.8492 8.04233L35.6836 9.47952C35.657 9.11749 35.7092 8.75401 35.8367 8.41412C35.9641 8.07423 36.1638 7.76603 36.4219 7.51077ZM46.6397 11.0939L41.5308 16.2028L36.6089 11.2809L38.115 10.2965L40.5366 14.3325C40.6259 14.4647 40.7461 14.5732 40.8867 14.6487C41.0273 14.7241 41.1842 14.7643 41.3438 14.7656C41.4966 14.7656 41.6473 14.73 41.784 14.6617C41.9207 14.5933 42.0396 14.4941 42.1312 14.3719L44.7891 10.8281H46.8464C46.7796 10.921 46.7073 11.0098 46.6298 11.0939H46.6397Z" fill="white"/>
<path d="M12.7969 18.7031C13.0579 18.7031 13.3083 18.5994 13.4929 18.4148C13.6775 18.2302 13.7812 17.9798 13.7812 17.7188V13.7812C13.7812 13.5202 13.6775 13.2698 13.4929 13.0852C13.3083 12.9006 13.0579 12.7969 12.7969 12.7969H8.85938C8.5983 12.7969 8.34792 12.9006 8.16332 13.0852C7.97871 13.2698 7.875 13.5202 7.875 13.7812V17.7188C7.875 17.9798 7.97871 18.2302 8.16332 18.4148C8.34792 18.5994 8.5983 18.7031 8.85938 18.7031C9.12045 18.7031 9.37083 18.5994 9.55543 18.4148C9.74004 18.2302 9.84375 17.9798 9.84375 17.7188V14.7656H11.8125V17.7188C11.8125 17.9798 11.9162 18.2302 12.1008 18.4148C12.2854 18.5994 12.5358 18.7031 12.7969 18.7031Z" fill="white"/>
<path d="M21.6562 17.7188V11.8125C21.6562 11.5514 21.5525 11.301 21.3679 11.1164C21.1833 10.9318 20.9329 10.8281 20.6719 10.8281H16.7344C16.4733 10.8281 16.2229 10.9318 16.0383 11.1164C15.8537 11.301 15.75 11.5514 15.75 11.8125V17.7188C15.75 17.9798 15.8537 18.2302 16.0383 18.4148C16.2229 18.5994 16.4733 18.7031 16.7344 18.7031C16.9954 18.7031 17.2458 18.5994 17.4304 18.4148C17.615 18.2302 17.7188 17.9798 17.7188 17.7188V12.7969H19.6875V17.7188C19.6875 17.9798 19.7912 18.2302 19.9758 18.4148C20.1604 18.5994 20.4108 18.7031 20.6719 18.7031C20.9329 18.7031 21.1833 18.5994 21.3679 18.4148C21.5525 18.2302 21.6562 17.9798 21.6562 17.7188Z" fill="white"/>
<path d="M28.5469 18.7031C28.8079 18.7031 29.0583 18.5994 29.2429 18.4148C29.4275 18.2302 29.5312 17.9798 29.5312 17.7188V7.875C29.5312 7.61393 29.4275 7.36355 29.2429 7.17894C29.0583 6.99433 28.8079 6.89062 28.5469 6.89062H24.6094C24.3483 6.89062 24.0979 6.99433 23.9133 7.17894C23.7287 7.36355 23.625 7.61393 23.625 7.875V17.7188C23.625 17.9798 23.7287 18.2302 23.9133 18.4148C24.0979 18.5994 24.3483 18.7031 24.6094 18.7031C24.8704 18.7031 25.1208 18.5994 25.3054 18.4148C25.49 18.2302 25.5938 17.9798 25.5938 17.7188V8.85938H27.5625V17.7188C27.5625 17.9798 27.6662 18.2302 27.8508 18.4148C28.0354 18.5994 28.2858 18.7031 28.5469 18.7031Z" fill="white"/>
<path d="M21.3709 4.22282C21.2793 4.13055 21.1705 4.05732 21.0505 4.00735C20.9306 3.95737 20.8019 3.93164 20.672 3.93164C20.542 3.93164 20.4133 3.95737 20.2934 4.00735C20.1734 4.05732 20.0646 4.13055 19.973 4.22282C17.5813 6.61156 14.4662 8.14144 11.1137 8.57375L8.77086 8.86907C8.5272 8.90203 8.3047 9.02499 8.14713 9.21375C7.98957 9.40251 7.90835 9.6434 7.91946 9.88903C7.93057 10.1347 8.0332 10.3672 8.20716 10.541C8.38112 10.7148 8.61381 10.8171 8.85945 10.828H8.97758L11.3302 10.5327C15.1287 10.0455 18.6591 8.31487 21.3709 5.61079C21.5542 5.42635 21.6571 5.17686 21.6571 4.9168C21.6571 4.65674 21.5542 4.40725 21.3709 4.22282Z" fill="white"/>
<path d="M14.7656 33.4688C15.9338 33.4688 17.0757 33.1224 18.047 32.4734C19.0182 31.8244 19.7753 30.902 20.2223 29.8227C20.6693 28.7435 20.7863 27.5559 20.5584 26.4102C20.3305 25.2645 19.768 24.2122 18.942 23.3862C18.116 22.5601 17.0636 21.9976 15.9179 21.7697C14.7722 21.5418 13.5846 21.6588 12.5054 22.1058C11.4262 22.5529 10.5037 23.3099 9.85476 24.2812C9.20577 25.2524 8.85938 26.3944 8.85938 27.5625C8.85938 29.1289 9.48164 30.6312 10.5893 31.7389C11.6969 32.8465 13.1992 33.4688 14.7656 33.4688ZM18.5653 26.5781H15.75V23.7628C16.4271 23.9396 17.0449 24.2936 17.5397 24.7884C18.0345 25.2832 18.3886 25.901 18.5653 26.5781ZM13.7812 23.7628V27.5625C13.7812 27.8236 13.885 28.074 14.0696 28.2586C14.2542 28.4432 14.5046 28.5469 14.7656 28.5469H18.5653C18.3944 29.2213 18.0479 29.8384 17.561 30.3353C17.0741 30.8323 16.4642 31.1913 15.7934 31.376C15.1227 31.5606 14.4149 31.5642 13.7423 31.3865C13.0697 31.2087 12.4562 30.8559 11.9642 30.3639C11.4723 29.872 11.1194 29.2584 10.9417 28.5858C10.7639 27.9132 10.7675 27.2055 10.9521 26.5347C11.1368 25.8639 11.4959 25.254 11.9928 24.7671C12.4898 24.2802 13.1068 23.9337 13.7812 23.7628Z" fill="white"/>
<path d="M43.3125 33.4688H47.25C47.5111 33.4688 47.7615 33.365 47.9461 33.1804C48.1307 32.9958 48.2344 32.7454 48.2344 32.4844V30.5156H50.2031C50.4642 30.5156 50.7146 30.4119 50.8992 30.2273C51.0838 30.0427 51.1875 29.7923 51.1875 29.5312V25.5938C51.1875 25.3327 51.0838 25.0823 50.8992 24.8977C50.7146 24.7131 50.4642 24.6094 50.2031 24.6094H48.2344V22.6406C48.2344 22.3796 48.1307 22.1292 47.9461 21.9446C47.7615 21.76 47.5111 21.6562 47.25 21.6562H43.3125C43.0514 21.6562 42.801 21.76 42.6164 21.9446C42.4318 22.1292 42.3281 22.3796 42.3281 22.6406V24.6094H40.3594C40.0983 24.6094 39.8479 24.7131 39.6633 24.8977C39.4787 25.0823 39.375 25.3327 39.375 25.5938V29.5312C39.375 29.7923 39.4787 30.0427 39.6633 30.2273C39.8479 30.4119 40.0983 30.5156 40.3594 30.5156H42.3281V32.4844C42.3281 32.7454 42.4318 32.9958 42.6164 33.1804C42.801 33.365 43.0514 33.4688 43.3125 33.4688ZM41.3438 28.5469V26.5781H43.3125C43.5736 26.5781 43.824 26.4744 44.0086 26.2898C44.1932 26.1052 44.2969 25.8548 44.2969 25.5938V23.625H46.2656V25.5938C46.2656 25.8548 46.3693 26.1052 46.5539 26.2898C46.7385 26.4744 46.9889 26.5781 47.25 26.5781H49.2188V28.5469H47.25C46.9889 28.5469 46.7385 28.6506 46.5539 28.8352C46.3693 29.0198 46.2656 29.2702 46.2656 29.5312V31.5H44.2969V29.5312C44.2969 29.2702 44.1932 29.0198 44.0086 28.8352C43.824 28.6506 43.5736 28.5469 43.3125 28.5469H41.3438Z" fill="white"/>
<path d="M24.6094 24.6094H29.5312C29.7923 24.6094 30.0427 24.5057 30.2273 24.3211C30.4119 24.1365 30.5156 23.8861 30.5156 23.625C30.5156 23.3639 30.4119 23.1135 30.2273 22.9289C30.0427 22.7443 29.7923 22.6406 29.5312 22.6406H24.6094C24.3483 22.6406 24.0979 22.7443 23.9133 22.9289C23.7287 23.1135 23.625 23.3639 23.625 23.625C23.625 23.8861 23.7287 24.1365 23.9133 24.3211C24.0979 24.5057 24.3483 24.6094 24.6094 24.6094Z" fill="white"/>
<path d="M34.4531 27.5625C34.4531 27.3014 34.3494 27.051 34.1648 26.8664C33.9802 26.6818 33.7298 26.5781 33.4688 26.5781H24.6094C24.3483 26.5781 24.0979 26.6818 23.9133 26.8664C23.7287 27.051 23.625 27.3014 23.625 27.5625C23.625 27.8236 23.7287 28.074 23.9133 28.2586C24.0979 28.4432 24.3483 28.5469 24.6094 28.5469H33.4688C33.7298 28.5469 33.9802 28.4432 34.1648 28.2586C34.3494 28.074 34.4531 27.8236 34.4531 27.5625Z" fill="white"/>
<path d="M24.6094 30.5156C24.3483 30.5156 24.0979 30.6193 23.9133 30.8039C23.7287 30.9885 23.625 31.2389 23.625 31.5C23.625 31.7611 23.7287 32.0115 23.9133 32.1961C24.0979 32.3807 24.3483 32.4844 24.6094 32.4844H30.5156C30.7767 32.4844 31.0271 32.3807 31.2117 32.1961C31.3963 32.0115 31.5 31.7611 31.5 31.5C31.5 31.2389 31.3963 30.9885 31.2117 30.8039C31.0271 30.6193 30.7767 30.5156 30.5156 30.5156H24.6094Z" fill="white"/>
</svg>
