<svg width="41" height="55" viewBox="0 0 41 55" fill="none" xmlns="http://www.w3.org/2000/svg">
<path d="M22.608 9.76422L22.5539 9.67484C22.0898 8.99766 21.3216 8.59375 20.5 8.59375C19.6784 8.59375 18.9102 8.99766 18.4452 9.67484L12.1177 21.798C11.4173 23.1421 11.0469 24.6538 11.0469 26.168V26.6406C11.0469 31.8527 15.2879 36.0938 20.5 36.0938C25.7121 36.0938 29.9531 31.8527 29.9531 26.6406V26.168C29.9531 24.6529 29.5827 23.1421 28.8823 21.798L22.608 9.76422ZM28.2344 26.6406C28.2344 30.9048 24.7642 34.375 20.5 34.375C16.2358 34.375 12.7656 30.9048 12.7656 26.6406V26.168C12.7656 24.9288 13.069 23.6921 13.6422 22.5921L19.8881 10.6133C20.1803 10.2352 20.8214 10.2352 21.1136 10.6133L27.3578 22.593C27.931 23.693 28.2344 24.9288 28.2344 26.1688V26.6406Z" fill="white"/>
<path d="M23.0781 18.9062H17.9219V22.3438H14.4844V27.5H17.9219V30.9375H23.0781V27.5H26.5156V22.3438H23.0781V18.9062ZM24.7969 24.0625V25.7812H21.3594V29.2188H19.6406V25.7812H16.2031V24.0625H19.6406V20.625H21.3594V24.0625H24.7969Z" fill="white"/>
<path d="M36.5935 30.9152L36.8255 30.6479L36.8015 30.2947C36.5918 27.1658 35.0887 16.58 33.865 8.46575L33.7541 7.73442H30.2994C27.0132 7.73442 23.7768 6.84153 20.9391 5.152L20.5 4.88989L20.06 5.152C17.2232 6.84153 13.9859 7.73442 10.7005 7.73442H7.24584L7.13584 8.46575C5.91209 16.58 4.40904 27.1658 4.19936 30.2947L4.17529 30.6479L4.40732 30.9152C5.61045 32.3014 9.99928 35.4811 18.4091 39.8785C19.0597 40.2179 19.7635 40.3907 20.5 40.3907C21.2373 40.3907 21.9412 40.2179 22.5917 39.8776C31.0024 35.4811 35.3904 32.3014 36.5935 30.9152ZM21.7951 38.3548C20.9898 38.7759 20.0093 38.7751 19.204 38.3548C11.064 34.0983 7.1685 31.2443 5.94045 30.0378C6.22061 26.6656 7.5724 17.1231 8.72397 9.45317H10.6997C14.1269 9.45317 17.5042 8.5663 20.5 6.88278C23.4958 8.5663 26.8731 9.45317 30.2994 9.45317H32.2751C33.4258 17.1231 34.7785 26.6656 35.0587 30.0386C33.8315 31.2443 29.9359 34.0992 21.7951 38.3548Z" fill="white"/>
<path d="M40.2656 30.9375C40.2656 27.4742 36.9587 5.94089 36.8178 5.02565L36.7061 4.2969H30.2995C26.9453 4.2969 23.6556 3.14276 21.0371 1.04761L20.5 0.61792L19.9629 1.04761C17.3444 3.14276 14.0547 4.2969 10.7005 4.2969H4.29391L4.18219 5.02565C4.04125 5.94089 0.734375 27.4742 0.734375 30.9375C0.734375 32.5145 3.13461 34.8262 7.86031 37.8323L1.5843 47.4882L9.62117 46.4836L12.6204 54.4827L18.5638 43.5858C19.1955 43.7448 19.8469 43.8282 20.5 43.8282C21.1531 43.8282 21.8045 43.7448 22.4362 43.5858L28.3796 54.4827L31.3788 46.4836L39.4157 47.4882L33.1388 37.8323C37.8654 34.8262 40.2656 32.5145 40.2656 30.9375ZM12.9109 50.3611L10.7538 44.6102L5.0407 45.3243L9.32125 38.7389C11.4362 40.0203 13.9258 41.4142 16.815 42.9249C16.8545 42.9456 16.8975 42.9593 16.937 42.9791L12.9109 50.3611ZM17.6116 41.4013C7.19687 35.9554 2.45312 32.1596 2.45312 30.9375C2.45312 27.9495 5.17906 9.888 5.76945 6.01565H10.7005C14.2171 6.01565 17.6709 4.8787 20.5 2.80159C23.3291 4.8787 26.7829 6.01565 30.2995 6.01565H35.2305C35.8209 9.888 38.5469 27.9495 38.5469 30.9375C38.5469 32.1596 33.8031 35.9554 23.3884 41.4013C21.6155 42.3277 19.3845 42.3277 17.6116 41.4013ZM35.9593 45.3243L30.2462 44.6102L28.0891 50.3611L24.063 42.9791C24.1025 42.9593 24.1455 42.9456 24.185 42.9249C27.0742 41.4142 29.5638 40.0211 31.6787 38.7389L35.9593 45.3243Z" fill="white"/>
</svg>
